<?xml version="1.0" encoding="UTF-8" standalone="no"?>
<svg
   xmlns:dc="http://purl.org/dc/elements/1.1/"
   xmlns:cc="http://creativecommons.org/ns#"
   xmlns:rdf="http://www.w3.org/1999/02/22-rdf-syntax-ns#"
   xmlns:svg="http://www.w3.org/2000/svg"
   xmlns="http://www.w3.org/2000/svg"
   xmlns:sodipodi="http://sodipodi.sourceforge.net/DTD/sodipodi-0.dtd"
   xmlns:inkscape="http://www.inkscape.org/namespaces/inkscape"
   width="1920.28"
   height="801.055"
   viewBox="0 0 1920.28 801.055"
   version="1.1"
   id="svg19"
   sodipodi:docname="header-bg.a3c87529.svg"
   inkscape:version="0.92.5 (2060ec1f9f, 2020-04-08)">
  <metadata
     id="metadata23">
    <rdf:RDF>
      <cc:Work
         rdf:about="">
        <dc:format>image/svg+xml</dc:format>
        <dc:type
           rdf:resource="http://purl.org/dc/dcmitype/StillImage" />
      </cc:Work>
    </rdf:RDF>
  </metadata>
  <sodipodi:namedview
     pagecolor="#ffffff"
     bordercolor="#666666"
     borderopacity="1"
     objecttolerance="10"
     gridtolerance="10"
     guidetolerance="10"
     inkscape:pageopacity="0"
     inkscape:pageshadow="2"
     inkscape:window-width="1920"
     inkscape:window-height="991"
     id="namedview21"
     showgrid="false"
     inkscape:zoom="0.49680254"
     inkscape:cx="946.36432"
     inkscape:cy="271.64253"
     inkscape:window-x="-9"
     inkscape:window-y="-9"
     inkscape:window-maximized="1"
     inkscape:current-layer="svg19" />
  <defs
     id="defs9">
    <linearGradient
       id="linear-gradient"
       x1="0.5"
       y1="-2.44"
       x2="0.5"
       y2="1"
       gradientUnits="objectBoundingBox">
      <stop
         offset="0"
         stop-color="#0435fb"
         stop-opacity="0.039"
         id="stop2" />
      <stop
         offset="0.444"
         stop-color="#e3e9fd"
         id="stop4" />
      <stop
         offset="1"
         stop-color="#fff"
         id="stop6" />
    </linearGradient>
    <radialGradient
       gradientUnits="objectBoundingBox"
       gradientTransform="matrix(-1, 0.003, -0.008, -2.706, 1.42, 2.016)"
       r="0.55"
       cy="0.533"
       cx="0.633"
       id="radial-gradient">
      <stop
         id="stop87"
         stop-color="#0a2776"
         offset="0" />
      <stop
         id="stop89"
         stop-color="#0b205a"
         offset="1" />
    </radialGradient>
  </defs>
  <g
     id="g47">
    <g
       style="fill:#3771c8"
       transform="translate(0.28 1.055)"
       data-name="Group 7940"
       id="Group_7940">
      <rect
         style="fill:#3771c8"
         fill="url(#linear-gradient)"
         height="800"
         width="1920"
         data-name="Rectangle 5389"
         id="Rectangle_5389" />
      <path
         style="fill:#3771c8"
         stroke-width="2.5"
         stroke="#fff"
         fill="none"
         transform="matrix(1, 0, 0, 1, -10778.533, 12373.323)"
         d="M10778.51-11972.934s123.861-22.442,199.472,11.476c93.964,42.151,212.675,121.437,266.391,72.444,96.96-88.434-92.745-149.843-62.378-262.625,20.225-75.113,30.072-111.5,126.816-221.348"
         data-name="Path 9624"
         id="Path_9624" />
      <path
         style="fill:#3771c8"
         stroke-width="2.5"
         stroke="#fff"
         fill="none"
         transform="matrix(1, 0, 0, 1, -10777.488, 12302.519)"
         d="M10777.464-11810.354c56.143-.878,203.957-1.675,310.361,11.188,76.17,9.207,179.213,91.073,233.987,51.141,149.249-108.809-51.619-148.481-111.457-182.82-44.879-25.754-139.116-162.986-9.3-371.928"
         data-name="Path 9625"
         id="Path_9625" />
      <path
         style="fill:#3771c8"
         opacity="0.921"
         stroke-width="3.7"
         stroke="#fff"
         fill="none"
         transform="matrix(1, 0, 0, 1, -10778.438, 12328.621)"
         d="M10778.415-11884.827s167.444,23.432,304.084,86.468c122.534,56.529,212.623,159.078,293.7,103.563,171.771-117.619,188.8-228.421,8.842-263.875-144.33-28.435-233-143.1-117.643-370.167"
         data-name="Path 9626"
         id="Path_9626" />
      <path
         style="fill:#3771c8"
         stroke-width="3.5"
         stroke="#fff"
         fill="none"
         transform="translate(-9988.551 12168.901)"
         d="M11051.251-12168.9c11.071,19.523,24.7,41.017,16.323,114.105-15.895,138.688-207.093,266.668-94.9,371.057,173.139,161.095,224.635,133.882,386.521,74.976,177.284-66.565,415.62-126.484,272-192.234-134.862-61.739-441.9-99.428-86.587-365.977"
         data-name="Path 9623"
         id="Path_9623" />
      <path
         style="fill:#3771c8"
         stroke-width="1.5"
         stroke="#fff"
         fill="none"
         transform="translate(-9938.039 12166.156)"
         d="M11009.918-12165.658c2.6,39.785.385,90.262-20.6,125.126-60.234,88.15-173.5,214.141-53.248,323.392,162.719,147.835,256.373,120.478,474.34,36.534s103.775-97.276-18.59-128.078c-111.107-27.967-310.295-42.757,18.126-357.471"
         data-name="Path 9627"
         id="Path_9627" />
      <path
         style="fill:#3771c8"
         stroke-width="2.7"
         stroke="#fff"
         fill="none"
         transform="translate(-9969.348 12251.575)"
         d="M10977.194-12251.574c-41.69,106.619-114.874,361.925,69.275,502.1,156.018,118.766,133,193.264,374.981,86.777,245.65-102.284,436.171-217.842,262.2-290.257-150.375-62.6-403.217-70.881-55.428-298.447"
         data-name="Path 9622"
         id="Path_9622" />
    </g>
    <g
       style="fill:#ffffff"
       id="Group_7865"
       data-name="Group 7865"
       transform="matrix(0.98532443,0,0,1,8.0347595,-6606.8148)">
      <path
         style="fill:#ffffff;stroke:#0435fb;stroke-width:1"
         inkscape:connector-curvature="0"
         id="Path_9876"
         data-name="Path 9876"
         d="m -11794.187,-10446.053 c 27.229,0.295 108.118,0.769 315.541,-0.184 90.893,-0.416 322.535,-17.457 430.266,-16.611 265.975,0.332 467.605,18.105 654.742,19.206 148.342,0.872 249.182,-2.095 519.658,-6.05"
         transform="translate(11794.24,17080.346)" />
      <path
         style="fill:#ffffff;stroke-width:0.5"
         inkscape:connector-curvature="0"
         id="Path_9877"
         data-name="Path 9877"
         d="m -11773.591,-10436.131 c 60.5,9.655 259.115,28.521 787.14,-7.667 665.566,-45.615 738.476,11.03 1132.527,4.454"
         transform="translate(11773.689,17069)"
         stroke="rgba(4,53,251,0.38)" />
      <path
         style="fill:#ffffff;stroke-width:0.5"
         inkscape:connector-curvature="0"
         id="Path_9880"
         data-name="Path 9880"
         d="m -11773.328,-10430.8 c 65.5,-2.6 183.209,-9.308 386.5,-23.241 136.2,-9.334 768.611,12.413 862.363,10.239 170.363,-3.949 448.313,-24.386 670.877,-0.8"
         transform="translate(11773.689,17069)"
         stroke="rgba(4,53,251,0.38)" />
    </g>
    <g
       style="fill:#afc6e9"
       id="Group_7944"
       data-name="Group 7944"
       transform="matrix(0.99790475,0,0,0.39186466,4.3028768,-846.94007)">
      <path
         style="fill:#afc6e9"
         inkscape:connector-curvature="0"
         id="Path_9875"
         data-name="Path 9875"
         d="m 0,0.563 c 0,0 187.6,7.008 414.706,5.587 227.106,-1.421 342.989,-11.271 493.709,-11.271 157.92,0 316.441,9.851 569.337,11.272 123.413,0.693 231.295,-9.741 309.982,-11.272 C 1869.963,-6.721 1920,0.563 1920,0.563 V 623.8 c 0,0 -192.337,9.492 -460.71,7.592 -131.745,-0.932 -276.779,7.055 -434.219,7.055 -180.48,0 -389.428,-15.779 -555.375,-14.648 C 193.441,625.679 0,631.389 0,631.389 Z"
         transform="translate(0,3581.721)" />
      <g
         style="fill:#afc6e9"
         id="Group_7864"
         data-name="Group 7864"
         transform="translate(0,-3054)">
        <path
           style="fill:#afc6e9;stroke:#0435fb;stroke-width:0.5"
           inkscape:connector-curvature="0"
           id="Path_9895"
           data-name="Path 9895"
           d="m -6915.523,-8248.719 c 0,0 -357.437,0.757 -535.754,-73.151 -178.317,-73.908 -203.283,97.746 -595.258,10.373 -391.975,-87.373 -287.219,-114.316 -490.178,-171.863 -202.959,-57.547 -298.811,7.653 -298.811,7.653"
           transform="translate(8835.523,15328.223)" />
        <path
           style="opacity:0.378;fill:#afc6e9;stroke:#707070;stroke-width:0.5"
           inkscape:connector-curvature="0"
           id="Path_9896"
           data-name="Path 9896"
           d="m -8836.847,-8396.529 c 0,0 349.636,-63.343 527.952,10.565 178.316,73.908 266.867,-65.595 658.842,21.778 391.975,87.373 727.013,0 727.013,0"
           transform="translate(8835.523,15341.223)" />
      </g>
    </g>
  </g>
</svg>
